<svg width="18" height="18" viewBox="0 0 18 18" fill="none" xmlns="http://www.w3.org/2000/svg">
<path fill-rule="evenodd" clip-rule="evenodd" d="M1.37527 14.7678C1.37527 12.8428 4.07277 11.0919 7.26861 11.0919C10.4469 11.0919 13.1619 12.8261 13.1619 14.7503C13.1619 16.6744 10.4644 17.1736 7.26861 17.1736C4.09027 17.1736 1.37527 16.6928 1.37527 14.7678Z" stroke="white" stroke-width="1.5" stroke-linecap="round" stroke-linejoin="round"/>
<path fill-rule="evenodd" clip-rule="evenodd" d="M11.0461 4.56913C11.0461 2.48246 9.35441 0.791626 7.26858 0.791626C5.18275 0.791626 3.49105 2.48246 3.49105 4.56913C3.48358 6.64746 5.16358 8.33913 7.24191 8.34663H7.26858C9.35441 8.34663 11.0461 6.65496 11.0461 4.56913Z" stroke="white" stroke-width="1.5" stroke-linecap="round" stroke-linejoin="round"/>
<path d="M16.2024 8.58337H12.631" stroke="white" stroke-width="1.5" stroke-linecap="round" stroke-linejoin="round"/>
<path d="M14.8333 7.33337L16.5 8.58337L14.8333 9.83337" stroke="white" stroke-width="1.5" stroke-linecap="round" stroke-linejoin="round"/>
</svg>
