<svg width="22" height="20" viewBox="0 0 22 20" fill="none" xmlns="http://www.w3.org/2000/svg">
<path fill-rule="evenodd" clip-rule="evenodd" d="M16.2412 2.51322C14.6229 1.99411 12.6669 2.40045 11.6769 3.90204C11.5414 4.10761 11.3136 4.23357 11.0674 4.23903C10.8213 4.2445 10.5881 4.12879 10.4436 3.92944C9.36482 2.44148 7.43956 2.00038 5.85112 2.51297L5.85057 2.51315C2.86206 3.47505 1.64144 7.11164 2.63592 10.2171C3.43565 12.7059 5.18475 14.6051 6.96258 15.891C7.8486 16.5319 8.72769 17.0098 9.4726 17.3251C10.2422 17.6508 10.7964 17.7722 11.0508 17.7722C11.3032 17.7722 11.8593 17.6484 12.6345 17.3173C13.3841 16.9972 14.2686 16.5133 15.1582 15.8683C16.9444 14.5731 18.6897 12.6747 19.4613 10.2212L19.4625 10.2176C20.4558 7.11343 19.2298 3.47561 16.2412 2.51322ZM11.0299 2.32661C12.5585 0.772794 14.8831 0.502092 16.6999 1.08508L16.7006 1.08531C20.7432 2.38683 22.0413 7.07755 20.8917 10.673C19.993 13.5286 17.9902 15.6676 16.0387 17.0827C15.0591 17.7929 14.077 18.3323 13.2237 18.6968C12.396 19.0503 11.6129 19.2722 11.0508 19.2722C10.4912 19.2722 9.71303 19.0557 8.88797 18.7065C8.03826 18.3469 7.06047 17.8131 6.08349 17.1064C4.13539 15.6974 2.13405 13.5587 1.20774 10.6756L1.20753 10.675C0.0562391 7.08057 1.34558 2.3875 5.3908 1.08535M11.0299 2.32661C9.48093 0.838135 7.23439 0.49063 5.391 1.08529L11.0299 2.32661Z" fill="#070721"/>
<path fill-rule="evenodd" clip-rule="evenodd" d="M14.0424 5.48732C14.0847 5.07527 14.4531 4.77556 14.8651 4.81789C15.6576 4.89931 16.3375 5.26256 16.8047 5.85339C17.2671 6.43809 17.4824 7.19508 17.455 8.01112C17.4411 8.4251 17.0943 8.74943 16.6803 8.73554C16.2663 8.72165 15.942 8.37479 15.9559 7.96081C15.9735 7.43584 15.8338 7.04384 15.6282 6.78379C15.4274 6.52986 15.1263 6.35262 14.7118 6.31004C14.2998 6.2677 14 5.89936 14.0424 5.48732Z" fill="#070721"/>
</svg>
