<svg width="22" height="22" viewBox="0 0 22 22" fill="none" xmlns="http://www.w3.org/2000/svg">
<path fill-rule="evenodd" clip-rule="evenodd" d="M15.7123 8.27212C16.0398 8.52582 16.0995 8.99692 15.8458 9.32434L12.9168 13.1043C12.7945 13.2622 12.6142 13.3648 12.416 13.3893C12.2178 13.4138 12.018 13.3582 11.8609 13.2349L9.04249 11.0225L6.51133 14.3114C6.2587 14.6396 5.7878 14.701 5.45954 14.4483C5.13129 14.1957 5.06998 13.7248 5.32261 13.3965L8.31561 9.50754C8.43769 9.34892 8.6181 9.24567 8.81671 9.22079C9.01532 9.1959 9.21563 9.25143 9.37308 9.37502L12.1934 11.589L14.6601 8.40558C14.9138 8.07816 15.3849 8.01841 15.7123 8.27212Z" fill="#070721"/>
<path fill-rule="evenodd" clip-rule="evenodd" d="M18.6671 2.1001C18.0193 2.1001 17.4951 2.62431 17.4951 3.2721C17.4951 3.91914 18.0196 4.4441 18.6671 4.4441C19.3147 4.4441 19.8391 3.91914 19.8391 3.2721C19.8391 2.62431 19.3149 2.1001 18.6671 2.1001ZM15.9951 3.2721C15.9951 1.79588 17.1909 0.600098 18.6671 0.600098C20.1433 0.600098 21.3391 1.79588 21.3391 3.2721C21.3391 4.74706 20.1436 5.9441 18.6671 5.9441C17.1907 5.9441 15.9951 4.74706 15.9951 3.2721Z" fill="#070721"/>
<path fill-rule="evenodd" clip-rule="evenodd" d="M4.00342 4.60693C2.78045 5.82991 2.19946 7.87608 2.19946 11.303C2.19946 14.7304 2.78046 16.7765 4.0034 17.9994C5.22635 19.2222 7.2725 19.803 10.6995 19.803C14.127 19.803 16.1731 19.2222 17.3959 17.9994C18.6187 16.7766 19.1995 14.7305 19.1995 11.303C19.1995 10.1973 19.1397 9.22783 19.0136 8.37922C18.9527 7.96951 19.2355 7.58801 19.6452 7.52712C20.0549 7.46624 20.4364 7.74902 20.4973 8.15874C20.6372 9.10013 20.6995 10.1467 20.6995 11.303C20.6995 14.8135 20.1242 17.3924 18.4565 19.0601C16.7889 20.7277 14.21 21.303 10.6995 21.303C7.18943 21.303 4.61058 20.7277 2.94278 19.0601C1.27497 17.3924 0.699463 14.8135 0.699463 11.303C0.699463 7.79288 1.27498 5.21405 2.94276 3.54627C4.61054 1.8785 7.18936 1.30298 10.6995 1.30298C11.8345 1.30298 12.8631 1.36321 13.7902 1.49775C14.2001 1.55724 14.4842 1.93777 14.4247 2.34769C14.3652 2.75761 13.9847 3.04169 13.5747 2.9822C12.7379 2.86075 11.7844 2.80298 10.6995 2.80298C7.27256 2.80298 5.22639 3.38396 4.00342 4.60693Z" fill="#070721"/>
</svg>
